<?xml version="1.0" encoding="UTF-8"?>
<svg id="Layer_1" xmlns="http://www.w3.org/2000/svg" version="1.1" viewBox="0 0 3264.15 1194.21">
  <!-- Generator: Adobe Illustrator 29.7.1, SVG Export Plug-In . SVG Version: 2.1.1 Build 8)  -->
  <defs>
    <style>
      .st0 {
        fill: #fff;
      }
    </style>
  </defs>
  <polygon class="st0" points="1679.66 498.18 1680.01 497.79 1602.36 497.79 1475.57 640.96 1369.65 640.96 1369.65 341.09 1307.03 341.09 1307.03 843.89 1369.65 843.89 1369.65 696.45 1474.2 696.45 1615.88 843.82 1615.94 843.89 1695.82 843.89 1527.12 665.83 1679.66 498.18"/>
  <rect class="st0" x="1748.26" y="341.09" width="62.62" height="502.81"/>
  <path class="st0" d="M2086.06,492.77c-65.89,0-120.61,17.2-158.26,49.75-36.71,31.73-56.11,76.83-56.11,130.42,0,59.17,21.07,104.88,62.64,135.87,39.44,29.4,95.52,44.31,166.69,44.31,61.12,0,109.68-7.95,157.44-25.78l1.37-.51v-60.17l-2.91,1.21c-44.91,18.59-93.8,27.62-149.48,27.62-52.72,0-91.86-7.14-119.66-21.84-29.4-15.54-46.53-39.64-52.37-73.67h341.14l.34-1.69c11.81-58.35,2.47-108.25-27.02-144.31-32.75-40.05-89.4-61.22-163.8-61.22ZM2218.81,646.62h-282.66c5.46-29.42,19.97-52.7,43.14-69.19,25.87-18.41,61.79-27.75,106.78-27.75,54.3,0,94.3,12.83,115.69,37.09,13.94,15.81,19.67,35.94,17.06,59.84Z"/>
  <path class="st0" d="M2709.98,538.16c-39-29.7-93.02-45.39-156.2-45.39s-116.84,15.7-155.93,45.39c-41.96,31.87-64.14,78.48-64.14,134.78s22.18,102.55,64.13,134.52c39.21,29.87,93.13,45.66,155.93,45.66s117.08-15.79,156.2-45.66c41.78-31.91,63.87-78.42,63.87-134.52s-22.09-102.97-63.87-134.78ZM2669.4,761.74c-27.46,21.15-67.44,32.33-115.62,32.33s-87.98-11.18-115.26-32.33c-27.13-21.04-41.48-51.74-41.48-88.8s14.34-67.76,41.48-88.79c27.28-21.15,67.13-32.32,115.26-32.32s88.16,11.18,115.62,32.33c27.36,21.08,41.83,51.78,41.83,88.79s-14.46,67.72-41.83,88.79Z"/>
  <path class="st0" d="M1175.32,725.57c-40.44,43.73-95.85,67.81-156.02,67.81-37.5,0-66.15-7.52-85.16-22.35-19.61-15.3-29.55-38.94-29.55-70.28v-202.97h-62.62v208.67c0,44.25,15.87,80.98,45.89,106.23,29.82,25.08,73.05,38.33,125.03,38.33,33.21,0,64.97-5.68,94.41-16.88,28.34-10.78,53.13-26.17,73.71-45.76v55.51h57.63v-346.11h-63.33v227.79Z"/>
  <path class="st0" d="M604.16,492.1c-130.6,0-164.61,66.26-167.09,81.89v-34.92h-34.06v-41.29h-57.33v45.48h34.06v300.2h63v-195.67s24.53-98.31,150.87-98.31c114.32,0,117.88,72.33,117.88,110.68s.55,183.3.55,183.3h62.29v-207.57c0-62.31-39.57-143.8-170.17-143.8Z"/>
  <polygon class="st0" points="2871.86 727.43 2871.79 727.34 2836.43 727.34 2885.6 785.77 2836.74 843.51 2836.41 843.89 2871.78 843.89 2918.41 789.07 2918.47 789.01 2918.47 782.54 2898.15 758.52 2871.86 727.43"/>
</svg>